<svg xmlns="http://www.w3.org/2000/svg" width="360" height="640" viewBox="0 0 360 640"><rect width="100%" height="100%" fill="#DDDDDD"/><path fill="#999999" d="M144.1 320q0 8.51-2.83 15.62-2.84 7.12-7.97 12.25-5.14 5.14-12.36 7.97-7.23 2.84-16.05 2.84H75.41v-77.36h29.48q8.82 0 16.05 2.86 7.22 2.86 12.36 7.97 5.13 5.11 7.97 12.23 2.83 7.11 2.83 15.62m-14.76 0q0-6.37-1.69-11.42-1.68-5.06-4.87-8.56-3.18-3.51-7.7-5.38t-10.19-1.87H89.85v54.46h15.04q5.67 0 10.19-1.87t7.7-5.38q3.19-3.5 4.87-8.56 1.69-5.05 1.69-11.42m76.23-27.23h-34.34v21.45h27.07v11.08h-27.07v21.88h34.34v11.5h-48.79v-77.36h48.79zm67.41-11.45h11.61l-31.24 77.36h-13l-31.25-77.36h11.56q1.87 0 3.05.91t1.77 2.35l18.24 47.19q.91 2.3 1.74 5.06.83 2.75 1.58 5.75.64-3 1.39-5.75.75-2.76 1.66-5.06l18.13-47.19q.43-1.23 1.69-2.24 1.26-1.02 3.07-1.02"/></svg>